<?xml version="1.0" encoding="iso-8859-1"?>
<!-- Uploaded to: SVG Repo, www.svgrepo.com, Generator: SVG Repo Mixer Tools -->
<svg height="800px" width="800px" version="1.1" id="Layer_1" xmlns="http://www.w3.org/2000/svg" xmlns:xlink="http://www.w3.org/1999/xlink" 
	 viewBox="0 0 496 496" xml:space="preserve">
<path style="fill:#FFCD50;" d="M496,425.3c0,41.6-9.6,61.6-51.2,61.6H242.4c-41.6,0-50.4-20-50.4-61.6V64.5
	c0-40.8,8.8-57.6,50.4-57.6h202.4c41.6,0,51.2,16.8,51.2,57.6V425.3z"/>
<path style="fill:#EF8A11;" d="M240,6.9h204.8c41.6,0,51.2,16.8,51.2,57.6v360.8c0,41.6-9.6,61.6-51.2,61.6"/>
<path style="fill:#51D687;" d="M472,393.3c0,34.4-19.2,61.6-42.4,61.6H258.4c-23.2,0-42.4-28-42.4-61.6V92.5
	c0-33.6,19.2-61.6,42.4-61.6h171.2c23.2,0,42.4,28,42.4,61.6L472,393.3L472,393.3z"/>
<path style="fill:#39B56B;" d="M216,92.5c0-33.6,9.6-61.6,44-61.6h168c34.4,0,44.8,28,44.8,62.4v304c0,34.4-8,57.6-42.4,57.6"/>
<circle style="fill:#FFCD50;" cx="228" cy="44.5" r="28.8"/>
<circle style="fill:#505454;" cx="228" cy="44.5" r="19.2"/>
<path style="fill:#303535;" d="M241.6,30.9c7.2,7.2,7.2,19.2,0,26.4c-7.2,7.2-19.2,7.2-26.4,0"/>
<circle style="fill:#FFCD50;" cx="459.2" cy="44.5" r="28.8"/>
<path style="fill:#505454;" d="M478.4,44.5c0,10.4-8.8,19.2-19.2,19.2c-10.4,0-19.2-8.8-19.2-19.2s8.8-19.2,19.2-19.2
	C469.6,25.3,478.4,34.1,478.4,44.5z"/>
<path style="fill:#303535;" d="M472.8,30.9c7.2,8,7.2,19.2,0,27.2c-7.2,7.2-19.2,7.2-26.4,0"/>
<circle style="fill:#FFCD50;" cx="228" cy="245.3" r="28.8"/>
<circle style="fill:#505454;" cx="228" cy="245.3" r="19.2"/>
<path style="fill:#303535;" d="M241.6,231.7c7.2,7.2,7.2,19.2,0,26.4c-7.2,7.2-19.2,7.2-26.4,0"/>
<circle style="fill:#FFCD50;" cx="459.2" cy="245.3" r="28.8"/>
<path style="fill:#505454;" d="M478.4,245.3c0,10.4-8.8,19.2-19.2,19.2c-10.4,0-19.2-8.8-19.2-19.2c0-10.4,8.8-19.2,19.2-19.2
	C469.6,226.1,478.4,234.9,478.4,245.3z"/>
<path style="fill:#303535;" d="M472.8,231.7c7.2,7.2,7.2,19.2,0,26.4s-19.2,7.2-26.4,0"/>
<circle style="fill:#FFCD50;" cx="228" cy="446.1" r="28.8"/>
<circle style="fill:#505454;" cx="228" cy="446.1" r="19.2"/>
<path style="fill:#303535;" d="M241.6,432.5c7.2,7.2,7.2,19.2,0,26.4c-7.2,7.2-19.2,7.2-26.4,0"/>
<circle style="fill:#FFCD50;" cx="459.2" cy="446.1" r="28.8"/>
<path style="fill:#505454;" d="M478.4,446.1c0,10.4-8.8,19.2-19.2,19.2c-10.4,0-19.2-8.8-19.2-19.2c0-10.4,8.8-19.2,19.2-19.2
	S478.4,435.7,478.4,446.1z"/>
<path style="fill:#303535;" d="M472.8,432.5c7.2,7.2,7.2,19.2,0,26.4c-7.2,7.2-19.2,7.2-26.4,0"/>
<circle style="fill:#505454;" cx="164.8" cy="322.9" r="164.8"/>
<path style="fill:#303535;" d="M281.6,206.9c64.8,64.8,64.8,168.8,0,233.6s-168.8,64.8-233.6,0"/>
<circle style="fill:#FFFFFF;" cx="164.8" cy="322.9" r="97.6"/>
<path style="fill:#E5E5E5;" d="M96,254.1c38.4-38.4,100-38.4,137.6,0c38.4,38.4,38.4,100,0,137.6"/>
<path style="fill:#3F4242;" d="M120,353.3c0-15.2,8-25.6,24-31.2v-0.8c-16-6.4-20-16-20-27.2c0-20.8,18.4-35.2,43.2-35.2
	c29.6,0,42.4,16.8,42.4,32c0,10.4-9.6,21.6-17.6,27.2v0.8c8,4.8,21.6,15.2,21.6,31.2c0,22.4-18.4,37.6-48,37.6
	C133.6,387.7,120,370.1,120,353.3z M182.4,351.7c0-11.2-8-17.6-20-20.8c-9.6,2.4-15.2,9.6-15.2,18.4s6.4,17.6,17.6,17.6
	C176,367.7,182.4,360.5,182.4,351.7z M149.6,292.5c0,8.8,8,13.6,17.6,16.8c6.4-1.6,12.8-8,12.8-16s-4.8-15.2-15.2-15.2
	C154.4,278.1,149.6,284.5,149.6,292.5z"/>
<path d="M192,318.1l-48,3.2c2.4,0,0,0,0,0v0.8c-16,5.6-24,16-24,31.2c0,16.8,13.6,35.2,45.6,35.2c28.8,0,48.8-15.2,48.8-37.6
	C213.6,334.1,204,322.9,192,318.1z M165.6,367.7c-11.2,0-17.6-8.8-17.6-17.6c0-8.8,5.6-16,15.2-18.4c11.2,3.2,20,9.6,20,20.8
	C182.4,360.5,176,367.7,165.6,367.7z"/>
</svg>