<svg width="36" height="30" viewBox="0 0 36 30" fill="none" xmlns="http://www.w3.org/2000/svg">
<path fill-rule="evenodd" clip-rule="evenodd" d="M2.25 23.0769C2.25 14.1554 9.3015 6.92308 18 6.92308C26.6985 6.92308 33.75 14.1554 33.75 23.0769H2.25ZM19.125 4.61538V2.30769H21.375C21.9971 2.30769 22.5 1.79192 22.5 1.15385C22.5 0.516923 21.9971 0 21.375 0H14.625C14.0029 0 13.5 0.516923 13.5 1.15385C13.5 1.79192 14.0029 2.30769 14.625 2.30769H16.875C16.875 2.30769 16.8671 4.71 16.875 4.61538C7.461 5.21423 0 13.2704 0 23.0769V24.2308C0 24.8688 0.502875 25.3846 1.125 25.3846H34.875C35.4971 25.3846 36 24.8688 36 24.2308V23.0769C36 13.2704 28.539 5.21423 19.125 4.61538ZM34.875 27.6923H1.125C0.502875 27.6923 0 28.2092 0 28.8462C0 29.4842 0.502875 30 1.125 30H34.875C35.4971 30 36 29.4842 36 28.8462C36 28.2092 35.4971 27.6923 34.875 27.6923Z" fill="white"/>
</svg>
