<svg width="254" height="254" viewBox="0 0 254 254" fill="none" xmlns="http://www.w3.org/2000/svg">
	<path d="M211.893 157.455H41.8204V50.863C41.8204 45.8668 45.8696 41.8176 50.8658 41.8176H202.853C207.849 41.8176 211.898 45.8668 211.898 50.863V157.455H211.893Z" fill="#539DF3" fill-opacity="0.37"/>
	<path d="M202.85 211.893H50.863C45.8668 211.893 41.8176 207.844 41.8176 202.847V174.315H211.893V202.85C211.893 207.844 207.844 211.893 202.85 211.893Z" fill="#539DF3" fill-opacity="0.37"/>
	<path d="M236.402 253.307H156.643C155.089 253.307 153.833 252.051 153.833 250.497C153.833 248.943 155.089 247.687 156.643 247.687H236.404C242.623 247.687 247.687 242.623 247.687 236.402V156.643C247.687 155.089 248.943 153.833 250.497 153.833C252.051 153.833 253.307 155.089 253.307 156.643V236.404C253.307 245.725 245.725 253.307 236.402 253.307Z" fill="#539DF3" fill-opacity="0.8"/>
	<path d="M97.0706 253.307H17.3116C7.99078 253.307 0.406593 245.725 0.406593 236.402V156.643C0.406593 155.089 1.66547 153.833 3.21659 153.833C4.76771 153.833 6.02659 155.089 6.02659 156.643V236.404C6.02659 242.623 11.0902 247.687 17.3116 247.687H97.0706C98.6217 247.687 99.8806 248.943 99.8806 250.497C99.8806 252.051 98.6217 253.307 97.0706 253.307Z" fill="#539DF3" fill-opacity="0.8"/>
	<path d="M3.21659 99.8806C1.66547 99.8806 0.406593 98.6217 0.406593 97.0706V17.3116C0.406593 7.99078 7.99078 0.406593 17.3116 0.406593H97.0706C98.6217 0.406593 99.8806 1.66547 99.8806 3.21659C99.8806 4.76771 98.6217 6.02659 97.0706 6.02659H17.3116C11.0902 6.02659 6.02659 11.0902 6.02659 17.3116V97.0706C6.02659 98.6217 4.76771 99.8806 3.21659 99.8806Z" fill="#539DF3" fill-opacity="0.8"/>
	<path d="M250.497 99.8806C248.943 99.8806 247.687 98.6217 247.687 97.0706V17.3116C247.687 11.0902 242.623 6.02659 236.402 6.02659H156.643C155.089 6.02659 153.833 4.76771 153.833 3.21659C153.833 1.66547 155.089 0.406593 156.643 0.406593H236.404C245.725 0.406593 253.307 7.99078 253.307 17.3116V97.0706C253.307 98.6217 252.051 99.8806 250.497 99.8806Z" fill="#539DF3" fill-opacity="0.8"/>
	<path d="M211.896 160.268H41.8176C40.2664 160.268 39.0076 159.011 39.0076 157.458V50.863C39.0076 44.3269 44.3269 39.0076 50.863 39.0076H202.85C209.386 39.0076 214.706 44.3269 214.706 50.863V157.458C214.706 159.009 213.447 160.268 211.896 160.268ZM44.6276 154.648H209.083V50.863C209.083 47.4235 206.287 44.6276 202.847 44.6276H50.863C47.4235 44.6276 44.6276 47.4235 44.6276 50.863V154.648Z" fill="#539DF3" fill-opacity="0.8"/>
	<path d="M202.85 214.706H50.863C44.3269 214.706 39.0076 209.386 39.0076 202.85V174.317C39.0076 172.764 40.2664 171.507 41.8176 171.507H211.893C213.447 171.507 214.703 172.764 214.703 174.317V202.85C214.706 209.386 209.386 214.706 202.85 214.706ZM44.6276 177.127V202.85C44.6276 206.29 47.4235 209.086 50.863 209.086H202.85C206.29 209.086 209.086 206.29 209.086 202.85V177.127H44.6276Z" fill="#539DF3" fill-opacity="0.8"/>
	<path d="M229.247 160.267H24.4658C22.9147 160.267 21.6558 159.011 21.6558 157.457C21.6558 155.904 22.9147 154.647 24.4658 154.647H229.25C230.804 154.647 232.06 155.904 232.06 157.457C232.06 159.011 230.801 160.267 229.247 160.267Z" fill="#539DF3" fill-opacity="0.8"/>
</svg>
