<svg width="52" height="24" viewBox="0 0 52 24" fill="none" xmlns="http://www.w3.org/2000/svg">
<circle cx="12" cy="12" r="11" fill="#FF810D" stroke="white" stroke-width="2"/>
<path d="M13.7188 10.0653C13.6733 9.66193 13.4858 9.34943 13.1562 9.12784C12.8267 8.90341 12.4119 8.79119 11.9119 8.79119C11.554 8.79119 11.2443 8.84801 10.983 8.96165C10.7216 9.07244 10.5185 9.22585 10.3736 9.42188C10.2315 9.61506 10.1605 9.83523 10.1605 10.0824C10.1605 10.2898 10.2088 10.4687 10.3054 10.6193C10.4048 10.7699 10.5341 10.8963 10.6932 10.9986C10.8551 11.098 11.0284 11.1818 11.2131 11.25C11.3977 11.3153 11.5753 11.3693 11.7457 11.4119L12.598 11.6335C12.8764 11.7017 13.1619 11.794 13.4545 11.9105C13.7472 12.027 14.0185 12.1804 14.2685 12.3707C14.5185 12.5611 14.7202 12.7969 14.8736 13.0781C15.0298 13.3594 15.108 13.696 15.108 14.0881C15.108 14.5824 14.9801 15.0213 14.7244 15.4048C14.4716 15.7884 14.1037 16.0909 13.6207 16.3125C13.1406 16.5341 12.5597 16.6449 11.8778 16.6449C11.2244 16.6449 10.6591 16.5412 10.1818 16.3338C9.70455 16.1264 9.33097 15.8324 9.06108 15.4517C8.79119 15.0682 8.64205 14.6136 8.61364 14.0881H9.93466C9.96023 14.4034 10.0625 14.6662 10.2415 14.8764C10.4233 15.0838 10.6548 15.2386 10.9361 15.3409C11.2202 15.4403 11.5312 15.4901 11.8693 15.4901C12.2415 15.4901 12.5724 15.4318 12.8622 15.3153C13.1548 15.196 13.3849 15.0312 13.5526 14.821C13.7202 14.608 13.804 14.3594 13.804 14.0753C13.804 13.8168 13.7301 13.6051 13.5824 13.4403C13.4375 13.2756 13.2401 13.1392 12.9901 13.0312C12.7429 12.9233 12.4631 12.8281 12.1506 12.7457L11.1193 12.4645C10.4205 12.2741 9.86648 11.9943 9.45739 11.625C9.05114 11.2557 8.84801 10.767 8.84801 10.1591C8.84801 9.65625 8.98438 9.21733 9.2571 8.84233C9.52983 8.46733 9.89915 8.17614 10.3651 7.96875C10.831 7.75852 11.3565 7.65341 11.9418 7.65341C12.5327 7.65341 13.054 7.7571 13.5057 7.96449C13.9602 8.17188 14.3182 8.45739 14.5795 8.82102C14.8409 9.18182 14.9773 9.59659 14.9886 10.0653H13.7188Z" fill="white"/>
<circle cx="26" cy="12" r="11" fill="#0D7CFF" stroke="white" stroke-width="2"/>
<path d="M22.5284 8.90625V7.77273H29.2827V8.90625H26.5597V16.5H25.2472V8.90625H22.5284Z" fill="white"/>
<circle cx="40" cy="12" r="11" fill="#FF3838" stroke="white" stroke-width="2"/>
<path d="M36.9588 16.5V7.77273H40.0696C40.7457 7.77273 41.3068 7.8892 41.7528 8.12216C42.2017 8.35511 42.5369 8.67756 42.7585 9.08949C42.9801 9.49858 43.0909 9.97159 43.0909 10.5085C43.0909 11.0426 42.9787 11.5128 42.7543 11.919C42.5327 12.3224 42.1974 12.6364 41.7486 12.8608C41.3026 13.0852 40.7415 13.1974 40.0653 13.1974H37.7088V12.0639H39.946C40.3722 12.0639 40.7188 12.0028 40.9858 11.8807C41.2557 11.7585 41.4531 11.581 41.5781 11.348C41.7031 11.1151 41.7656 10.8352 41.7656 10.5085C41.7656 10.179 41.7017 9.89347 41.5739 9.65199C41.4489 9.41051 41.2514 9.22585 40.9815 9.09801C40.7145 8.96733 40.3636 8.90199 39.929 8.90199H38.2756V16.5H36.9588ZM41.267 12.5625L43.4233 16.5H41.9233L39.8097 12.5625H41.267Z" fill="white"/>
</svg>
