<svg width="52" height="52" viewBox="0 0 52 52" fill="none" xmlns="http://www.w3.org/2000/svg">
<path d="M11.2753 6.94501H41.451V46.6765C41.451 47.0766 41.2921 47.4604 41.0091 47.7433C40.7262 48.0263 40.3424 48.1852 39.9423 48.1852H12.7841C12.3839 48.1852 12.0001 48.0263 11.7172 47.7433C11.4342 47.4604 11.2753 47.0766 11.2753 46.6765V6.94501Z" fill="#DFEDFF"/>
<path d="M39.9423 48.5624H12.7841C12.284 48.5619 11.8046 48.363 11.4511 48.0095C11.0975 47.6559 10.8986 47.1765 10.8981 46.6765V6.94501C10.8981 6.84497 10.9378 6.74903 11.0085 6.67829C11.0793 6.60755 11.1752 6.56781 11.2753 6.56781H41.451C41.5511 6.56781 41.647 6.60755 41.7178 6.67829C41.7885 6.74903 41.8282 6.84497 41.8282 6.94501V46.6765C41.8277 47.1765 41.6288 47.6559 41.2753 48.0095C40.9217 48.363 40.4423 48.5619 39.9423 48.5624ZM11.6525 7.3222V46.6765C11.6529 46.9764 11.7722 47.264 11.9843 47.4762C12.1965 47.6883 12.4841 47.8076 12.7841 47.808H39.9423C40.2423 47.8076 40.5298 47.6883 40.742 47.4762C40.9541 47.264 41.0735 46.9764 41.0739 46.6765V7.3222H11.6525Z" fill="#66A9F7"/>
<path d="M12.7841 3.89624H39.9423C40.3424 3.89624 40.7262 4.0552 41.0091 4.33815C41.2921 4.62111 41.451 5.00487 41.451 5.40503V13.9548H11.2753V5.40503C11.2753 5.00487 11.4342 4.62111 11.7172 4.33815C12.0001 4.0552 12.3839 3.89624 12.7841 3.89624Z" fill="white"/>
<path d="M41.451 14.332H11.2753C11.1752 14.332 11.0793 14.2923 11.0085 14.2216C10.9378 14.1508 10.8981 14.0549 10.8981 13.9548V5.40503C10.8986 4.905 11.0975 4.4256 11.4511 4.07202C11.8046 3.71845 12.284 3.51958 12.7841 3.51904H39.9423C40.4423 3.51958 40.9217 3.71845 41.2753 4.07202C41.6288 4.4256 41.8277 4.905 41.8282 5.40503V13.9548C41.8282 14.0549 41.7885 14.1508 41.7178 14.2216C41.647 14.2923 41.5511 14.332 41.451 14.332ZM11.6525 13.5776H41.0739V5.40503C41.0735 5.10504 40.9541 4.81744 40.742 4.60531C40.5298 4.39319 40.2423 4.27384 39.9423 4.27344H12.7841C12.4841 4.27384 12.1965 4.39319 11.9843 4.60531C11.7722 4.81744 11.6529 5.10504 11.6525 5.40503V13.5776Z" fill="#66A9F7"/>
<path d="M16.3046 28.8763C16.3046 31.544 17.3643 34.1024 19.2507 35.9888C21.137 37.8751 23.6955 38.9348 26.3632 38.9348C29.0309 38.9348 31.5893 37.8751 33.4757 35.9888C35.362 34.1024 36.4218 31.544 36.4218 28.8763C36.4218 26.2085 35.362 23.6501 33.4757 21.7638C31.5893 19.8774 29.0309 18.8177 26.3632 18.8177C23.6955 18.8177 21.137 19.8774 19.2507 21.7638C17.3643 23.6501 16.3046 26.2085 16.3046 28.8763Z" fill="white"/>
<path d="M26.3632 39.312C20.6086 39.312 15.9274 34.6308 15.9274 28.8763C15.9274 23.1217 20.6086 18.4405 26.3632 18.4405C32.1177 18.4405 36.799 23.1217 36.799 28.8763C36.799 34.6308 32.1177 39.312 26.3632 39.312ZM26.3632 19.1949C21.0246 19.1949 16.6818 23.5382 16.6818 28.8763C16.6818 34.2143 21.0246 38.5576 26.3632 38.5576C31.7018 38.5576 36.0446 34.2143 36.0446 28.8763C36.0446 23.5382 31.7018 19.1949 26.3632 19.1949Z" fill="#66A9F7"/>
<path d="M18.8192 28.8763C18.8192 30.877 19.614 32.7959 21.0288 34.2106C22.4435 35.6254 24.3624 36.4202 26.3632 36.4202C28.3639 36.4202 30.2828 35.6254 31.6975 34.2106C33.1123 32.7959 33.9071 30.877 33.9071 28.8763C33.9071 26.8755 33.1123 24.9566 31.6975 23.5419C30.2828 22.1271 28.3639 21.3323 26.3632 21.3323C24.3624 21.3323 22.4435 22.1271 21.0288 23.5419C19.614 24.9566 18.8192 26.8755 18.8192 28.8763Z" fill="#DFEDFF"/>
<path d="M26.3677 36.5459H26.3632C25.8626 36.5461 25.3632 36.4975 24.872 36.4011C24.8392 36.3944 24.8105 36.375 24.792 36.3471C24.7736 36.3193 24.767 36.2852 24.7736 36.2525C24.7803 36.2197 24.7997 36.191 24.8276 36.1725C24.8555 36.1541 24.8895 36.1475 24.9223 36.1542C25.3976 36.2476 25.8808 36.2946 26.3652 36.2945C26.3987 36.2945 26.4309 36.3076 26.4548 36.3312C26.4787 36.3547 26.4924 36.3867 26.4929 36.4202C26.4932 36.4367 26.4901 36.4532 26.4839 36.4685C26.4778 36.4839 26.4685 36.4978 26.4569 36.5095C26.4452 36.5213 26.4313 36.5305 26.416 36.5368C26.4006 36.543 26.3842 36.5461 26.3677 36.5459ZM27.8388 36.4016C27.8222 36.4032 27.8056 36.4015 27.7897 36.3966C27.7739 36.3918 27.7591 36.3839 27.7463 36.3733C27.7335 36.3627 27.7229 36.3498 27.7151 36.3351C27.7074 36.3205 27.7025 36.3044 27.701 36.2879C27.6994 36.2714 27.7011 36.2548 27.7059 36.2389C27.7108 36.223 27.7187 36.2083 27.7292 36.1955C27.7398 36.1827 27.7528 36.1721 27.7674 36.1643C27.7821 36.1565 27.7981 36.1517 27.8146 36.1501C28.2911 36.0556 28.757 35.9142 29.2057 35.7282C29.221 35.7218 29.2373 35.7186 29.2539 35.7185C29.2704 35.7185 29.2867 35.7218 29.302 35.7281C29.3173 35.7344 29.3312 35.7436 29.3429 35.7553C29.3546 35.7669 29.3638 35.7808 29.3702 35.7961C29.3765 35.8113 29.3798 35.8277 29.3798 35.8442C29.3798 35.8607 29.3766 35.8771 29.3703 35.8924C29.364 35.9076 29.3547 35.9215 29.3431 35.9332C29.3314 35.9449 29.3175 35.9542 29.3023 35.9605C28.8384 36.153 28.3566 36.2992 27.8639 36.3971C27.8557 36.3994 27.8473 36.4009 27.8388 36.4016ZM23.4809 35.9756C23.4636 35.9759 23.4465 35.9727 23.4306 35.9661C22.9665 35.7739 22.5225 35.5365 22.1049 35.2574C22.0911 35.2482 22.0793 35.2365 22.0701 35.2227C22.061 35.209 22.0546 35.1936 22.0514 35.1774C22.0481 35.1611 22.0481 35.1445 22.0514 35.1283C22.0546 35.1121 22.061 35.0966 22.0702 35.0829C22.0793 35.0692 22.0911 35.0574 22.1049 35.0482C22.1186 35.039 22.134 35.0326 22.1502 35.0294C22.1664 35.0262 22.1831 35.0262 22.1993 35.0294C22.2155 35.0326 22.2309 35.039 22.2447 35.0482C22.6486 35.3182 23.0782 35.5478 23.5271 35.7337C23.5542 35.7449 23.5765 35.7652 23.5902 35.7911C23.6039 35.817 23.6082 35.8468 23.6022 35.8755C23.5962 35.9042 23.5805 35.9299 23.5576 35.9481C23.5347 35.9664 23.5061 35.9761 23.4768 35.9756H23.4809ZM30.5571 35.2715C30.5301 35.2715 30.5038 35.2629 30.4821 35.2468C30.4604 35.2307 30.4445 35.2081 30.4366 35.1823C30.4288 35.1565 30.4295 35.1288 30.4386 35.1034C30.4477 35.078 30.4647 35.0561 30.4872 35.0412C30.8907 34.7706 31.2668 34.4614 31.6102 34.1178C31.6338 34.0942 31.6659 34.0809 31.6992 34.0809C31.7326 34.0809 31.7647 34.0942 31.7883 34.1178C31.8119 34.1414 31.8251 34.1734 31.8251 34.2068C31.8251 34.2402 31.8119 34.2722 31.7883 34.2958C31.4328 34.6523 31.0434 34.9732 30.6255 35.2539C30.6051 35.2669 30.5813 35.2737 30.5571 35.2735V35.2715ZM21.0336 34.3406C21.0171 34.3406 21.0007 34.3374 20.9854 34.3311C20.9702 34.3248 20.9563 34.3156 20.9446 34.3039C20.5891 33.9489 20.269 33.5602 19.989 33.1431C19.9704 33.1154 19.9636 33.0815 19.97 33.0488C19.9764 33.016 19.9956 32.9872 20.0232 32.9686C20.0509 32.95 20.0848 32.9431 20.1176 32.9495C20.1503 32.956 20.1791 32.9751 20.1977 33.0028C20.468 33.4062 20.7769 33.7824 21.1201 34.1258C21.1377 34.1434 21.1498 34.1658 21.1546 34.1903C21.1595 34.2147 21.157 34.24 21.1475 34.263C21.1379 34.286 21.1218 34.3057 21.1011 34.3195C21.0804 34.3333 21.056 34.3406 21.0311 34.3406H21.0336ZM32.6372 33.1919C32.6144 33.1919 32.5921 33.1857 32.5725 33.174C32.553 33.1623 32.537 33.1455 32.5262 33.1254C32.5155 33.1054 32.5104 33.0827 32.5115 33.06C32.5126 33.0372 32.5199 33.0152 32.5326 32.9963C32.8027 32.5924 33.0325 32.163 33.2186 31.7143C33.2247 31.6988 33.2338 31.6846 33.2455 31.6726C33.2571 31.6607 33.271 31.6511 33.2864 31.6446C33.3018 31.6381 33.3183 31.6347 33.335 31.6346C33.3517 31.6345 33.3682 31.6377 33.3836 31.6441C33.3991 31.6505 33.4131 31.6599 33.4248 31.6717C33.4366 31.6836 33.4459 31.6976 33.4521 31.7131C33.4584 31.7286 33.4615 31.7452 33.4613 31.7619C33.4611 31.7785 33.4576 31.795 33.4509 31.8103C33.2584 32.2744 33.0207 32.7185 32.7413 33.1361C32.7299 33.1532 32.7144 33.1672 32.6962 33.177C32.6781 33.1867 32.6578 33.1918 32.6372 33.1919ZM19.3946 31.8963C19.3697 31.8964 19.3454 31.889 19.3247 31.8752C19.3041 31.8614 19.2879 31.8418 19.2784 31.8189C19.0856 31.355 18.939 30.8732 18.8408 30.3805C18.8342 30.3478 18.8408 30.3138 18.8591 30.286C18.8775 30.2582 18.9062 30.2388 18.9389 30.2322C18.9716 30.2255 19.0056 30.2321 19.0334 30.2505C19.0612 30.2689 19.0806 30.2975 19.0873 30.3302C19.1822 30.8071 19.3241 31.2734 19.5107 31.7223C19.5187 31.7414 19.5218 31.7622 19.5198 31.7828C19.5178 31.8034 19.5107 31.8232 19.4992 31.8404C19.4877 31.8576 19.4722 31.8718 19.4539 31.8815C19.4356 31.8913 19.4153 31.8964 19.3946 31.8963ZM33.7638 30.4731C33.7556 30.4739 33.7473 30.4739 33.7391 30.4731C33.7228 30.47 33.7072 30.4638 33.6932 30.4547C33.6793 30.4456 33.6673 30.4339 33.658 30.4201C33.6486 30.4064 33.6421 30.3909 33.6387 30.3746C33.6354 30.3583 33.6353 30.3415 33.6385 30.3252C33.7324 29.8486 33.7795 29.364 33.7794 28.8783V28.8612C33.7793 28.8447 33.7825 28.8283 33.7887 28.813C33.795 28.7977 33.8042 28.7838 33.8158 28.7721C33.8275 28.7604 33.8413 28.7511 33.8565 28.7447C33.8717 28.7383 33.8881 28.735 33.9046 28.7349C33.9378 28.7349 33.9698 28.7481 33.9933 28.7716C34.0169 28.7951 34.0302 28.8269 34.0303 28.8602V28.8783C34.0304 29.3804 33.9815 29.8813 33.8845 30.374C33.8785 30.4017 33.8633 30.4265 33.8414 30.4445C33.8195 30.4625 33.7921 30.4726 33.7638 30.4731ZM18.8192 29.0105C18.7859 29.0105 18.7539 28.9973 18.7303 28.9737C18.7067 28.9501 18.6935 28.9181 18.6935 28.8848V28.8763C18.6933 28.3771 18.7415 27.879 18.8373 27.3891C18.8406 27.3729 18.8471 27.3575 18.8563 27.3438C18.8656 27.33 18.8775 27.3183 18.8913 27.3092C18.9051 27.3 18.9205 27.2937 18.9368 27.2905C18.953 27.2874 18.9697 27.2875 18.9859 27.2908C19.0021 27.2941 19.0176 27.3005 19.0313 27.3098C19.045 27.319 19.0567 27.3309 19.0659 27.3447C19.075 27.3585 19.0813 27.374 19.0845 27.3902C19.0876 27.4065 19.0876 27.4232 19.0843 27.4394C18.9915 27.9134 18.9448 28.3953 18.9449 28.8783V28.8868C18.9444 28.9198 18.9309 28.9513 18.9074 28.9744C18.8839 28.9976 18.8522 29.0105 18.8192 29.0105ZM33.7602 27.5133C33.7313 27.5133 33.7032 27.5033 33.6807 27.485C33.6583 27.4667 33.6428 27.4411 33.637 27.4127C33.5416 26.9365 33.3994 26.4709 33.2126 26.0226C33.2056 26.0073 33.2018 25.9907 33.2013 25.9739C33.2009 25.9571 33.2038 25.9403 33.21 25.9247C33.2161 25.909 33.2253 25.8947 33.2371 25.8827C33.2489 25.8707 33.2629 25.8611 33.2785 25.8546C33.294 25.8481 33.3107 25.8448 33.3275 25.8449C33.3443 25.8449 33.361 25.8484 33.3764 25.855C33.3919 25.8616 33.4059 25.8713 33.4176 25.8834C33.4293 25.8955 33.4384 25.9098 33.4444 25.9256C33.6377 26.3892 33.7848 26.8709 33.8835 27.3634C33.8872 27.3817 33.8868 27.4006 33.8823 27.4187C33.8779 27.4368 33.8695 27.4537 33.8577 27.4681C33.8459 27.4826 33.831 27.4942 33.8142 27.5022C33.7973 27.5102 33.7789 27.5143 33.7602 27.5143V27.5133ZM19.388 26.1237C19.3673 26.1237 19.3469 26.1186 19.3287 26.1089C19.3104 26.0991 19.2949 26.085 19.2834 26.0678C19.2719 26.0506 19.2648 26.0308 19.2628 26.0102C19.2608 25.9896 19.2639 25.9688 19.2719 25.9497C19.4639 25.4855 19.701 25.0413 19.98 24.6235C19.9892 24.6097 20.001 24.5979 20.0147 24.5888C20.0284 24.5796 20.0438 24.5732 20.06 24.57C20.0763 24.5668 20.0929 24.5668 20.1091 24.57C20.1253 24.5732 20.1408 24.5796 20.1545 24.5888C20.1682 24.598 20.18 24.6098 20.1892 24.6235C20.1984 24.6372 20.2048 24.6526 20.208 24.6689C20.2112 24.6851 20.2112 24.7017 20.208 24.7179C20.2048 24.7341 20.1984 24.7496 20.1892 24.7633C19.9196 25.1673 19.6903 25.5969 19.5047 26.0458C19.4952 26.0689 19.479 26.0887 19.4583 26.1025C19.4375 26.1164 19.413 26.1238 19.388 26.1237ZM32.6282 24.7975C32.6075 24.7976 32.5872 24.7926 32.5689 24.7829C32.5507 24.7733 32.5351 24.7593 32.5235 24.7422C32.2523 24.3391 31.9424 23.9635 31.5982 23.6206C31.5861 23.6091 31.5765 23.5952 31.5699 23.5799C31.5633 23.5645 31.5598 23.548 31.5597 23.5314C31.5595 23.5147 31.5626 23.4981 31.5689 23.4826C31.5752 23.4672 31.5846 23.4531 31.5963 23.4413C31.6081 23.4295 31.6222 23.4201 31.6376 23.4138C31.653 23.4074 31.6696 23.4042 31.6863 23.4044C31.703 23.4045 31.7195 23.4079 31.7348 23.4145C31.7502 23.4211 31.7641 23.4306 31.7757 23.4426C32.1311 23.7971 32.4511 24.1853 32.7313 24.6019C32.744 24.6208 32.7514 24.6428 32.7526 24.6656C32.7539 24.6884 32.7488 24.7111 32.7381 24.7312C32.7274 24.7514 32.7115 24.7682 32.6919 24.78C32.6724 24.7918 32.65 24.798 32.6271 24.798L32.6282 24.7975ZM21.0195 23.675C20.9946 23.675 20.9703 23.6677 20.9496 23.6538C20.9288 23.64 20.9127 23.6204 20.9032 23.5974C20.8936 23.5744 20.8911 23.5491 20.896 23.5246C20.9009 23.5002 20.9129 23.4778 20.9305 23.4602C21.2853 23.1047 21.6739 22.7847 22.0908 22.5046C22.1184 22.486 22.1524 22.4792 22.1851 22.4856C22.2178 22.492 22.2467 22.5112 22.2653 22.5388C22.2839 22.5665 22.2907 22.6005 22.2843 22.6332C22.2779 22.6659 22.2588 22.6947 22.2311 22.7134C21.8283 22.9839 21.4529 23.2929 21.1101 23.6362C21.0984 23.6485 21.0843 23.6582 21.0688 23.6649C21.0532 23.6715 21.0365 23.675 21.0195 23.675ZM30.5405 22.7194C30.5158 22.7194 30.4916 22.712 30.4711 22.6983C30.0669 22.4288 29.6371 22.1997 29.1881 22.0143C29.1579 22.0012 29.134 21.9767 29.1216 21.9461C29.1092 21.9156 29.1094 21.8814 29.122 21.8509C29.1346 21.8204 29.1586 21.7961 29.189 21.7832C29.2193 21.7703 29.2535 21.7699 29.2842 21.7819C29.7485 21.9736 30.1929 22.2105 30.6109 22.489C30.6334 22.504 30.6504 22.5258 30.6595 22.5513C30.6686 22.5767 30.6693 22.6043 30.6615 22.6302C30.6536 22.656 30.6377 22.6786 30.616 22.6947C30.5943 22.7108 30.568 22.7194 30.541 22.7194H30.5405ZM23.4648 22.0349C23.4355 22.0354 23.4069 22.0257 23.384 22.0074C23.3612 21.9892 23.3454 21.9635 23.3394 21.9348C23.3335 21.9061 23.3377 21.8762 23.3514 21.8504C23.3651 21.8245 23.3874 21.8042 23.4145 21.793C23.8782 21.6 24.3598 21.4533 24.8524 21.3549C24.8685 21.3516 24.8852 21.3516 24.9014 21.3547C24.9176 21.3578 24.9331 21.3641 24.9469 21.3732C24.9606 21.3824 24.9725 21.3941 24.9817 21.4078C24.991 21.4215 24.9974 21.4368 25.0007 21.453C25.004 21.4692 25.0041 21.4859 25.001 21.5021C24.9978 21.5183 24.9915 21.5337 24.9824 21.5475C24.9733 21.5613 24.9616 21.5731 24.9479 21.5824C24.9342 21.5916 24.9188 21.5981 24.9027 21.6014C24.4266 21.6972 23.9611 21.8397 23.5131 22.0269C23.4976 22.0327 23.4812 22.0354 23.4648 22.0349ZM27.8222 21.5989C27.8141 21.5996 27.806 21.5996 27.798 21.5989C27.3255 21.5067 26.8451 21.4604 26.3637 21.4606H26.3506C26.3172 21.4606 26.2853 21.4473 26.2617 21.4237C26.2381 21.4002 26.2249 21.3682 26.2249 21.3348C26.2249 21.3015 26.2381 21.2695 26.2617 21.2459C26.2853 21.2223 26.3172 21.2091 26.3506 21.2091H26.3622C26.8603 21.209 27.3574 21.257 27.8463 21.3524C27.8628 21.354 27.8788 21.3588 27.8935 21.3666C27.9081 21.3744 27.9211 21.385 27.9317 21.3978C27.9422 21.4106 27.9502 21.4253 27.955 21.4412C27.9599 21.4571 27.9615 21.4737 27.96 21.4902C27.9584 21.5067 27.9536 21.5228 27.9458 21.5374C27.938 21.5521 27.9274 21.565 27.9146 21.5756C27.9018 21.5862 27.8871 21.5941 27.8712 21.5989C27.8553 21.6038 27.8387 21.6055 27.8222 21.6039V21.5989Z" fill="#66A9F7"/>
<path d="M14.7958 7.66821H17.3104V10.1829H14.7958V7.66821Z" fill="#DFEDFF"/>
<path d="M17.3104 10.5601H14.7958C14.6957 10.5601 14.5998 10.5203 14.5291 10.4496C14.4583 10.3788 14.4186 10.2829 14.4186 10.1829V7.66821C14.4186 7.56817 14.4583 7.47223 14.5291 7.40149C14.5998 7.33076 14.6957 7.29102 14.7958 7.29102H17.3104C17.4105 7.29102 17.5064 7.33076 17.5771 7.40149C17.6479 7.47223 17.6876 7.56817 17.6876 7.66821V10.1829C17.6876 10.2829 17.6479 10.3788 17.5771 10.4496C17.5064 10.5203 17.4105 10.5601 17.3104 10.5601ZM15.173 9.80566H16.9332V8.04541H15.173V9.80566Z" fill="#66A9F7"/>
<path d="M18.9696 7.66821H21.4842V10.1829H18.9696V7.66821Z" fill="#DFEDFF"/>
<path d="M21.4842 10.5601H18.9696C18.8696 10.5601 18.7736 10.5203 18.7029 10.4496C18.6321 10.3788 18.5924 10.2829 18.5924 10.1829V7.66821C18.5924 7.56817 18.6321 7.47223 18.7029 7.40149C18.7736 7.33076 18.8696 7.29102 18.9696 7.29102H21.4842C21.5843 7.29102 21.6802 7.33076 21.751 7.40149C21.8217 7.47223 21.8614 7.56817 21.8614 7.66821V10.1829C21.8614 10.2829 21.8217 10.3788 21.751 10.4496C21.6802 10.5203 21.5843 10.5601 21.4842 10.5601ZM19.3468 9.80566H21.107V8.04541H19.3468V9.80566Z" fill="#66A9F7"/>
<path d="M23.1429 7.66821H25.6575V10.1829H23.1429V7.66821Z" fill="#DFEDFF"/>
<path d="M25.6575 10.5601H23.1429C23.0429 10.5601 22.9469 10.5203 22.8762 10.4496C22.8054 10.3788 22.7657 10.2829 22.7657 10.1829V7.66821C22.7657 7.56817 22.8054 7.47223 22.8762 7.40149C22.9469 7.33076 23.0429 7.29102 23.1429 7.29102H25.6575C25.7576 7.29102 25.8535 7.33076 25.9243 7.40149C25.995 7.47223 26.0347 7.56817 26.0347 7.66821V10.1829C26.0347 10.2829 25.995 10.3788 25.9243 10.4496C25.8535 10.5203 25.7576 10.5601 25.6575 10.5601ZM23.5201 9.80566H25.2803V8.04541H23.5201V9.80566Z" fill="#66A9F7"/>
<path d="M34.6208 8.92554C34.6208 9.32569 34.7797 9.70946 35.0627 9.99241C35.3456 10.2754 35.7294 10.4343 36.1295 10.4343C36.5297 10.4343 36.9135 10.2754 37.1964 9.99241C37.4794 9.70946 37.6383 9.32569 37.6383 8.92554C37.6383 8.52538 37.4794 8.14161 37.1964 7.85866C36.9135 7.57571 36.5297 7.41675 36.1295 7.41675C35.7294 7.41675 35.3456 7.57571 35.0627 7.85866C34.7797 8.14161 34.6208 8.52538 34.6208 8.92554Z" fill="#DFEDFF"/>
<path d="M36.1295 10.8115C35.7565 10.8115 35.3919 10.7009 35.0818 10.4937C34.7716 10.2864 34.5299 9.99189 34.3871 9.64727C34.2444 9.30265 34.207 8.92345 34.2798 8.5576C34.3526 8.19175 34.5322 7.8557 34.796 7.59194C35.0597 7.32818 35.3958 7.14856 35.7616 7.07579C36.1275 7.00302 36.5067 7.04037 36.8513 7.18311C37.1959 7.32586 37.4905 7.56759 37.6977 7.87774C37.9049 8.18789 38.0155 8.55253 38.0155 8.92554C38.015 9.42557 37.8161 9.90497 37.4626 10.2585C37.109 10.6121 36.6296 10.811 36.1295 10.8115ZM36.1295 7.79395C35.9057 7.79395 35.687 7.86031 35.5009 7.98465C35.3148 8.10899 35.1697 8.28572 35.0841 8.4925C34.9984 8.69927 34.976 8.92679 35.0197 9.1463C35.0634 9.36581 35.1711 9.56744 35.3294 9.72569C35.4876 9.88395 35.6893 9.99172 35.9088 10.0354C36.1283 10.079 36.3558 10.0566 36.5626 9.97099C36.7694 9.88535 36.9461 9.74031 37.0704 9.55422C37.1948 9.36813 37.2611 9.14935 37.2611 8.92554C37.2607 8.62554 37.1414 8.33795 36.9293 8.12582C36.7171 7.91369 36.4295 7.79435 36.1295 7.79395Z" fill="#66A9F7"/>
</svg>
